<?xml version="1.0" encoding="UTF-8" standalone="no"?>
<!-- Created with Inkscape (http://www.inkscape.org/) -->

<svg
   xmlns:dc="http://purl.org/dc/elements/1.1/"
   xmlns:cc="http://creativecommons.org/ns#"
   xmlns:rdf="http://www.w3.org/1999/02/22-rdf-syntax-ns#"
   xmlns:svg="http://www.w3.org/2000/svg"
   xmlns="http://www.w3.org/2000/svg"
   xmlns:sodipodi="http://sodipodi.sourceforge.net/DTD/sodipodi-0.dtd"
   xmlns:inkscape="http://www.inkscape.org/namespaces/inkscape"
   id="svg2"
   version="1.1"
   inkscape:version="0.48.5 r10040"
   width="610.9975"
   height="334.14999"
   xml:space="preserve"
   sodipodi:docname="UTAHAGRC_LogoA_Vertical_CMYK.ai"><metadata
     id="metadata8"><rdf:RDF><cc:Work
         rdf:about=""><dc:format>image/svg+xml</dc:format><dc:type
           rdf:resource="http://purl.org/dc/dcmitype/StillImage" /><dc:title></dc:title></cc:Work></rdf:RDF></metadata><defs
     id="defs6"><clipPath
       clipPathUnits="userSpaceOnUse"
       id="clipPath16"><path
         d="M 0,792 612,792 612,0 0,0 0,792 z"
         id="path18"
         inkscape:connector-curvature="0" /></clipPath></defs><sodipodi:namedview
     pagecolor="#ffffff"
     bordercolor="#666666"
     borderopacity="1"
     objecttolerance="10"
     gridtolerance="10"
     guidetolerance="10"
     inkscape:pageopacity="0"
     inkscape:pageshadow="2"
     inkscape:window-width="640"
     inkscape:window-height="480"
     id="namedview4"
     showgrid="false"
     fit-margin-top="20"
     fit-margin-left="20"
     fit-margin-right="20"
     fit-margin-bottom="20"
     inkscape:zoom="0.23838384"
     inkscape:cx="283.62875"
     inkscape:cy="47.583762"
     inkscape:window-x="0"
     inkscape:window-y="0"
     inkscape:window-maximized="0"
     inkscape:current-layer="g10" /><g
     id="g10"
     inkscape:groupmode="layer"
     inkscape:label="UTAHAGRC_LogoA_Vertical_CMYK"
     transform="matrix(1.25,0,0,-1.25,-98.87125,781.56625)"><g
       id="g12"><g
         id="g14"
         clip-path="url(#clipPath16)"><path
           d="m 322.159,571.873 51.656,-51.661 c 14.054,-0.707 27.548,-1.694 40.321,-2.939 l -91.977,91.98 -92.118,-92.118 c 12.788,1.269 26.304,2.283 40.389,3.011 l 51.729,51.727 z"
           style="fill:#90c84b;fill-opacity:1;fill-rule:nonzero;stroke:none"
           id="path20"
           inkscape:connector-curvature="0" /><path
           d="m 267.83,570.023 -18.601,18.602 -80.716,-80.716 c 13.315,2.885 28.579,5.395 45.373,7.445 l 53.944,54.669 z"
           style="fill:#90c84b;fill-opacity:1;fill-rule:nonzero;stroke:none"
           id="path22"
           inkscape:connector-curvature="0" /><path
           d="m 396.343,588.625 -18.607,-18.602 53.948,-54.666 c 16.795,-2.051 32.059,-4.562 45.372,-7.444 l -80.713,80.712 z"
           style="fill:#90c84b;fill-opacity:1;fill-rule:nonzero;stroke:none"
           id="path24"
           inkscape:connector-curvature="0" /><path
           d="m 338.611,501.721 -14.482,-14.483 -2.418,-19.534 -2.603,19.639 -13.996,13.996 -21.299,2.641 21.916,2.899 13.577,13.577 2.367,19.078 2.548,-19.261 13.144,-13.143 21.755,-2.698 -20.509,-2.711 z m 148.758,-6.207 c -30.527,7.675 -73.92,13.173 -123.568,15.152 l -42.128,42.127 -42.22,-42.218 c -50.001,-2.112 -93.494,-7.801 -123.662,-15.681 -16.939,-4.419 -29.696,-9.532 -37.012,-15.092 22.33,5.172 51.9,9.454 86.298,12.458 23.047,2.015 48.272,3.451 74.941,4.204 l 41.655,-41.656 41.715,41.717 c 27.473,-0.736 53.435,-2.196 77.107,-4.265 34.398,-3.004 63.969,-7.286 86.296,-12.458 -7.661,5.822 -21.279,11.151 -39.422,15.712"
           style="fill:#373535;fill-opacity:1;fill-rule:nonzero;stroke:none"
           id="path26"
           inkscape:connector-curvature="0" /><path
           d="m 273.006,488.621 -13.417,-0.469 0.264,-7.486 13.416,0.471 -0.263,7.484 z m -35.645,-1.629 0.38,-7.479 13.412,0.679 -0.381,7.477 -13.411,-0.677 z m -22.093,-1.535 0.53,-7.473 13.393,0.951 -0.529,7.469 -13.394,-0.947 z m -22.118,-1.732 0.609,-7.466 13.383,1.095 -0.609,7.464 -13.383,-1.093 z m -21.988,-2.149 0.721,-7.457 13.365,1.298 -0.721,7.454 -13.365,-1.295 z m -22.013,-2.499 0.898,-7.438 13.33,1.611 -0.898,7.435 -13.33,-1.608 z m -22.054,-3.156 1.081,-7.411 13.289,1.935 -1.081,7.41 -13.289,-1.934 z"
           style="fill:#00a7db;fill-opacity:1;fill-rule:nonzero;stroke:none"
           id="path28"
           inkscape:connector-curvature="0" /><path
           d="m 369.78,481.137 13.418,-0.471 0.264,7.486 -13.418,0.469 -0.264,-7.484 z m 22.499,6.532 -0.382,-7.477 13.412,-0.679 0.375,7.479 -13.405,0.677 z m 22.108,-1.265 -0.528,-7.469 13.393,-0.951 0.533,7.473 -13.398,0.947 z m 22.13,-1.586 -0.611,-7.464 13.39,-1.095 0.606,7.466 -13.385,1.093 z m 22.009,-1.947 -0.721,-7.454 13.36,-1.298 0.728,7.457 -13.367,1.295 z m 22.044,-2.186 -0.896,-7.435 13.326,-1.611 0.902,7.438 -13.332,1.608 z m 22.095,-2.83 -1.077,-7.41 13.288,-1.935 1.08,7.411 -13.291,1.934 z"
           style="fill:#00a7db;fill-opacity:1;fill-rule:nonzero;stroke:none"
           id="path30"
           inkscape:connector-curvature="0" /><path
           d="m 134.695,450.172 12.86,0 0,-29.301 c 0,-7.538 -2.231,-13.253 -6.69,-17.145 -4.461,-3.892 -10.829,-5.838 -19.108,-5.838 -8.181,0 -14.534,1.971 -19.054,5.913 -4.522,3.941 -6.784,9.605 -6.784,16.996 l 0,29.375 12.9,0 0,-29.666 c 0,-3.593 1.177,-6.477 3.531,-8.642 2.352,-2.169 5.439,-3.251 9.259,-3.251 3.967,0 7.14,1.108 9.52,3.325 2.376,2.214 3.566,5.368 3.566,9.457 l 0,28.777 z"
           style="fill:#373535;fill-opacity:1;fill-rule:nonzero;stroke:none"
           id="path32"
           inkscape:connector-curvature="0" /><path
           d="m 204.551,450.172 0,-9.464 -18.699,0 0,-42.171 -12.862,0 0,42.171 -18.699,0 0,9.464 50.26,0 z"
           style="fill:#373535;fill-opacity:1;fill-rule:nonzero;stroke:none"
           id="path34"
           inkscape:connector-curvature="0" /><path
           d="m 233.835,417.771 -8.359,20.053 -7.561,-20.053 15.92,0 z m -1.036,32.401 22.885,-51.635 -13.832,0 -4.263,10.228 -23.073,0 -3.857,-10.228 -13.633,0 20.782,51.635 14.991,0 z"
           style="fill:#373535;fill-opacity:1;fill-rule:nonzero;stroke:none"
           id="path36"
           inkscape:connector-curvature="0" /><path
           d="m 312.478,450.172 0,-51.635 -12.859,0 0,20.876 -25.762,0 0,-20.876 -12.861,0 0,51.635 12.861,0 0,-20.723 25.762,0 0,20.723 12.859,0 z"
           style="fill:#373535;fill-opacity:1;fill-rule:nonzero;stroke:none"
           id="path38"
           inkscape:connector-curvature="0" /><path
           d="m 367.21,417.771 -8.356,20.053 -7.566,-20.053 15.922,0 z m -1.036,32.401 22.887,-51.635 -13.834,0 -4.265,10.228 -23.07,0 -3.861,-10.228 -13.631,0 20.781,51.635 14.993,0 z"
           style="fill:#373535;fill-opacity:1;fill-rule:nonzero;stroke:none"
           id="path40"
           inkscape:connector-curvature="0" /><path
           d="m 440.571,446.64 0,-11.276 c -6.584,3.179 -13.02,4.771 -19.305,4.771 -6.066,0 -10.737,-1.529 -14.016,-4.589 -3.278,-3.058 -4.918,-6.955 -4.918,-11.69 0,-4.539 1.64,-8.215 4.918,-11.027 3.279,-2.812 7.594,-4.216 12.948,-4.216 2.834,0 5.681,0.616 8.544,1.853 l 0,6.046 -7.483,0 0,9.465 20.38,0 0,-21.132 c -2.046,-2.049 -5.158,-3.719 -9.338,-5.013 -4.179,-1.297 -8.313,-1.944 -12.405,-1.944 -9.004,0 -16.392,2.484 -22.171,7.455 -5.783,4.967 -8.674,11.287 -8.674,18.957 0,7.842 2.891,14.236 8.674,19.181 5.779,4.944 13.271,7.416 22.466,7.416 7.594,0 14.387,-1.418 20.38,-4.257"
           style="fill:#373535;fill-opacity:1;fill-rule:nonzero;stroke:none"
           id="path42"
           inkscape:connector-curvature="0" /><path
           d="m 464.925,440.708 0,-11.755 6.797,0 c 2.167,0 3.885,0.51 5.153,1.534 1.268,1.023 1.9,2.484 1.9,4.38 0,3.894 -2.447,5.841 -7.349,5.841 l -6.501,0 z m -12.862,9.464 23.064,0 c 5.005,0 9.068,-1.447 12.201,-4.344 3.13,-2.895 4.693,-6.398 4.693,-10.513 0,-5.692 -2.961,-9.905 -8.877,-12.641 2.608,-1.163 5.077,-4.333 7.416,-9.507 2.332,-5.172 4.587,-10.046 6.764,-14.63 l -14.082,0 c -0.848,1.701 -2.322,4.942 -4.426,9.723 -2.103,4.781 -3.902,7.848 -5.395,9.201 -1.493,1.352 -3.091,2.027 -4.794,2.027 l -3.702,0 0,-20.951 -12.862,0 0,51.635 z"
           style="fill:#373535;fill-opacity:1;fill-rule:nonzero;stroke:none"
           id="path44"
           inkscape:connector-curvature="0" /><path
           d="m 550.713,414.298 0,-11.272 c -6.463,-3.425 -13.234,-5.138 -20.31,-5.138 -9.173,0 -16.477,2.532 -21.914,7.601 -5.436,5.069 -8.156,11.314 -8.156,18.738 0,7.422 2.866,13.723 8.598,18.901 5.732,5.178 13.217,7.769 22.461,7.769 7.371,0 13.604,-1.518 18.708,-4.554 l 0,-11.512 c -6.263,3.535 -12.189,5.304 -17.781,5.304 -5.494,0 -9.986,-1.474 -13.475,-4.422 -3.489,-2.946 -5.23,-6.702 -5.23,-11.266 0,-4.587 1.719,-8.373 5.16,-11.358 3.438,-2.984 7.845,-4.476 13.221,-4.476 2.662,0 5.227,0.35 7.695,1.051 2.463,0.702 6.139,2.247 11.023,4.634"
           style="fill:#373535;fill-opacity:1;fill-rule:nonzero;stroke:none"
           id="path46"
           inkscape:connector-curvature="0" /><path
           d="m 103.321,378.394 -1.863,4.477 -1.692,-4.477 3.555,0 z m -0.225,7.235 5.105,-11.535 -3.09,0 -0.951,2.289 -5.155,0 -0.864,-2.289 -3.044,0 4.657,11.535 3.342,0 z"
           style="fill:#373535;fill-opacity:1;fill-rule:nonzero;stroke:none"
           id="path48"
           inkscape:connector-curvature="0" /><path
           d="m 118.591,385.629 2.875,0 0,-6.555 c 0,-1.687 -0.498,-2.966 -1.494,-3.836 -0.996,-0.871 -2.418,-1.305 -4.269,-1.305 -1.827,0 -3.245,0.44 -4.255,1.321 -1.011,0.883 -1.516,2.149 -1.516,3.803 l 0,6.572 2.877,0 0,-6.641 c 0,-0.805 0.262,-1.452 0.789,-1.935 0.525,-0.487 1.215,-0.729 2.069,-0.729 0.884,0 1.595,0.248 2.127,0.746 0.53,0.493 0.797,1.201 0.797,2.116 l 0,6.443 z"
           style="fill:#373535;fill-opacity:1;fill-rule:nonzero;stroke:none"
           id="path50"
           inkscape:connector-curvature="0" /><path
           d="m 135.23,385.629 0,-2.114 -4.181,0 0,-9.421 -2.877,0 0,9.421 -4.182,0 0,2.114 11.24,0 z"
           style="fill:#373535;fill-opacity:1;fill-rule:nonzero;stroke:none"
           id="path52"
           inkscape:connector-curvature="0" /><path
           d="m 142.831,376.324 c 1.09,0 1.966,0.325 2.632,0.974 0.666,0.649 0.998,1.501 0.998,2.556 0,1.058 -0.332,1.912 -0.998,2.56 -0.666,0.645 -1.542,0.969 -2.632,0.969 -1.095,0 -1.977,-0.324 -2.645,-0.969 -0.669,-0.648 -1.003,-1.502 -1.003,-2.56 0,-1.055 0.334,-1.907 1.003,-2.556 0.668,-0.649 1.55,-0.974 2.645,-0.974 m 0,9.465 c 1.963,0 3.555,-0.594 4.77,-1.783 1.217,-1.188 1.825,-2.57 1.825,-4.149 0,-1.601 -0.617,-2.988 -1.85,-4.162 -1.232,-1.175 -2.815,-1.762 -4.745,-1.762 -1.954,0 -3.544,0.584 -4.77,1.753 -1.228,1.171 -1.841,2.56 -1.841,4.171 0,1.582 0.609,2.967 1.827,4.153 1.219,1.186 2.813,1.779 4.784,1.779"
           style="fill:#373535;fill-opacity:1;fill-rule:nonzero;stroke:none"
           id="path54"
           inkscape:connector-curvature="0" /><path
           d="m 158.569,381.348 3.692,4.281 2.508,0 0,-11.535 -2.876,0 0,7.195 -3.104,-3.615 -0.438,0 -3.105,3.615 0,-7.195 -2.877,0 0,11.535 2.501,0 3.699,-4.281 z"
           style="fill:#373535;fill-opacity:1;fill-rule:nonzero;stroke:none"
           id="path56"
           inkscape:connector-curvature="0" /><path
           d="m 175.134,378.394 -1.863,4.477 -1.692,-4.477 3.555,0 z m -0.224,7.235 5.104,-11.535 -3.09,0 -0.953,2.289 -5.153,0 -0.864,-2.289 -3.045,0 4.657,11.535 3.344,0 z"
           style="fill:#373535;fill-opacity:1;fill-rule:nonzero;stroke:none"
           id="path58"
           inkscape:connector-curvature="0" /><path
           d="m 190.59,385.629 0,-2.114 -4.184,0 0,-9.421 -2.874,0 0,9.421 -4.183,0 0,2.114 11.241,0 z"
           style="fill:#373535;fill-opacity:1;fill-rule:nonzero;stroke:none"
           id="path60"
           inkscape:connector-curvature="0" /><path
           d="m 201.685,376.206 0,-2.112 -8.497,0 0,11.535 8.38,0 0,-2.114 -5.504,0 0,-2.422 5.253,0 0,-2.113 -5.253,0 0,-2.774 5.621,0 z"
           style="fill:#373535;fill-opacity:1;fill-rule:nonzero;stroke:none"
           id="path62"
           inkscape:connector-curvature="0" /><path
           d="m 207.612,383.515 0,-7.309 1.876,0 c 1.216,0 2.147,0.335 2.791,1.005 0.645,0.668 0.968,1.549 0.968,2.646 0,1.133 -0.327,2.028 -0.979,2.679 -0.653,0.653 -1.591,0.979 -2.813,0.979 l -1.843,0 z m -2.877,2.114 5.087,0 c 1.964,0 3.519,-0.539 4.66,-1.616 1.143,-1.075 1.714,-2.466 1.714,-4.172 0,-1.79 -0.579,-3.195 -1.738,-4.216 -1.159,-1.021 -2.812,-1.531 -4.958,-1.531 l -4.765,0 0,11.535 z"
           style="fill:#373535;fill-opacity:1;fill-rule:nonzero;stroke:none"
           id="path64"
           inkscape:connector-curvature="0" /><path
           d="m 235.697,384.83 0,-2.518 c -1.47,0.713 -2.908,1.071 -4.312,1.071 -1.356,0 -2.399,-0.344 -3.13,-1.028 -0.733,-0.685 -1.099,-1.556 -1.099,-2.617 0,-1.015 0.366,-1.84 1.099,-2.47 0.731,-0.629 1.696,-0.944 2.891,-0.944 0.633,0 1.27,0.141 1.908,0.416 l 0,1.36 -1.673,0 0,2.113 4.55,0 0,-4.725 c -0.456,-0.459 -1.152,-0.832 -2.083,-1.121 -0.934,-0.29 -1.857,-0.434 -2.771,-0.434 -2.01,0 -3.658,0.555 -4.95,1.666 -1.29,1.112 -1.936,2.526 -1.936,4.242 0,1.754 0.646,3.184 1.936,4.289 1.292,1.106 2.965,1.659 5.018,1.659 1.696,0 3.213,-0.319 4.552,-0.959"
           style="fill:#373535;fill-opacity:1;fill-rule:nonzero;stroke:none"
           id="path66"
           inkscape:connector-curvature="0" /><path
           d="m 247.792,376.206 0,-2.112 -8.499,0 0,11.535 8.381,0 0,-2.114 -5.504,0 0,-2.422 5.253,0 0,-2.113 -5.253,0 0,-2.774 5.622,0 z"
           style="fill:#373535;fill-opacity:1;fill-rule:nonzero;stroke:none"
           id="path68"
           inkscape:connector-curvature="0" /><path
           d="m 256.967,376.324 c 1.09,0 1.967,0.325 2.633,0.974 0.666,0.649 0.999,1.501 0.999,2.556 0,1.058 -0.333,1.912 -0.999,2.56 -0.666,0.645 -1.543,0.969 -2.633,0.969 -1.095,0 -1.976,-0.324 -2.644,-0.969 -0.669,-0.648 -1.003,-1.502 -1.003,-2.56 0,-1.055 0.334,-1.907 1.003,-2.556 0.668,-0.649 1.549,-0.974 2.644,-0.974 m 0,9.465 c 1.966,0 3.555,-0.594 4.771,-1.783 1.217,-1.188 1.825,-2.57 1.825,-4.149 0,-1.601 -0.616,-2.988 -1.849,-4.162 -1.232,-1.175 -2.815,-1.762 -4.747,-1.762 -1.952,0 -3.544,0.584 -4.77,1.753 -1.228,1.171 -1.841,2.56 -1.841,4.171 0,1.582 0.61,2.967 1.827,4.153 1.221,1.186 2.815,1.779 4.784,1.779"
           style="fill:#373535;fill-opacity:1;fill-rule:nonzero;stroke:none"
           id="path70"
           inkscape:connector-curvature="0" /><path
           d="m 277.499,384.83 0,-2.518 c -1.47,0.713 -2.908,1.071 -4.313,1.071 -1.355,0 -2.398,-0.344 -3.13,-1.028 -0.732,-0.685 -1.098,-1.556 -1.098,-2.617 0,-1.015 0.366,-1.84 1.098,-2.47 0.734,-0.629 1.696,-0.944 2.892,-0.944 0.634,0 1.271,0.141 1.909,0.416 l 0,1.36 -1.672,0 0,2.113 4.548,0 0,-4.725 c -0.457,-0.459 -1.152,-0.832 -2.084,-1.121 -0.933,-0.29 -1.856,-0.434 -2.771,-0.434 -2.007,0 -3.657,0.555 -4.949,1.666 -1.291,1.112 -1.936,2.526 -1.936,4.242 0,1.754 0.646,3.184 1.936,4.289 1.292,1.106 2.965,1.659 5.017,1.659 1.698,0 3.215,-0.319 4.553,-0.959"
           style="fill:#373535;fill-opacity:1;fill-rule:nonzero;stroke:none"
           id="path72"
           inkscape:connector-curvature="0" /><path
           d="m 283.971,383.515 0,-2.628 1.52,0 c 0.484,0 0.868,0.115 1.152,0.343 0.282,0.229 0.425,0.555 0.425,0.979 0,0.871 -0.548,1.306 -1.643,1.306 l -1.454,0 z m -2.876,2.114 5.15,0 c 1.117,0 2.026,-0.324 2.724,-0.972 0.699,-0.645 1.048,-1.428 1.048,-2.346 0,-1.274 -0.659,-2.213 -1.977,-2.825 0.572,-0.261 1.118,-0.971 1.642,-2.126 0.519,-1.155 1.024,-2.245 1.509,-3.266 l -3.139,0 c -0.19,0.38 -0.52,1.103 -0.99,2.17 -0.472,1.068 -0.874,1.754 -1.205,2.056 -0.331,0.303 -0.686,0.454 -1.063,0.454 l -0.823,0 0,-4.68 -2.876,0 0,11.535 z"
           style="fill:#373535;fill-opacity:1;fill-rule:nonzero;stroke:none"
           id="path74"
           inkscape:connector-curvature="0" /><path
           d="m 300.343,378.394 -1.862,4.477 -1.693,-4.477 3.555,0 z m -0.222,7.235 5.103,-11.535 -3.087,0 -0.955,2.289 -5.152,0 -0.866,-2.289 -3.044,0 4.655,11.535 3.346,0 z"
           style="fill:#373535;fill-opacity:1;fill-rule:nonzero;stroke:none"
           id="path76"
           inkscape:connector-curvature="0" /><path
           d="m 310.406,383.515 0,-2.671 1.328,0 c 1.185,0 1.783,0.444 1.783,1.336 0,0.5 -0.16,0.847 -0.477,1.041 -0.318,0.197 -0.861,0.294 -1.627,0.294 l -1.007,0 z m -2.876,2.114 5.128,0 c 1.163,0 2.091,-0.34 2.778,-1.016 0.686,-0.676 1.029,-1.476 1.029,-2.4 0,-0.958 -0.34,-1.777 -1.017,-2.46 -0.674,-0.682 -1.598,-1.023 -2.764,-1.023 l -2.278,0 0,-4.636 -2.876,0 0,11.535 z"
           style="fill:#373535;fill-opacity:1;fill-rule:nonzero;stroke:none"
           id="path78"
           inkscape:connector-curvature="0" /><path
           d="m 330.83,385.629 0,-11.535 -2.873,0 0,4.68 -5.722,0 0,-4.68 -2.881,0 0,11.535 2.881,0 0,-4.624 5.722,0 0,4.624 2.873,0 z"
           style="fill:#373535;fill-opacity:1;fill-rule:nonzero;stroke:none"
           id="path80"
           inkscape:connector-curvature="0" /><path
           d="m 337.248,374.094 -2.876,0 0,11.535 2.876,0 0,-11.535 z"
           style="fill:#373535;fill-opacity:1;fill-rule:nonzero;stroke:none"
           id="path82"
           inkscape:connector-curvature="0" /><path
           d="m 351.485,377.6 0,-2.518 c -1.442,-0.768 -2.952,-1.149 -4.531,-1.149 -2.046,0 -3.679,0.566 -4.89,1.699 -1.213,1.134 -1.82,2.532 -1.82,4.192 0,1.66 0.639,3.07 1.919,4.228 1.277,1.158 2.952,1.737 5.014,1.737 1.646,0 3.034,-0.338 4.178,-1.014 l 0,-2.567 c -1.401,0.783 -2.723,1.175 -3.971,1.175 -1.227,0 -2.228,-0.33 -3.009,-0.99 -0.779,-0.661 -1.167,-1.5 -1.167,-2.524 0,-1.026 0.385,-1.874 1.153,-2.543 0.767,-0.669 1.751,-1.002 2.947,-1.002 0.593,0 1.169,0.079 1.718,0.238 0.55,0.156 1.37,0.502 2.459,1.038"
           style="fill:#373535;fill-opacity:1;fill-rule:nonzero;stroke:none"
           id="path84"
           inkscape:connector-curvature="0" /><path
           d="m 363.054,383.515 0,-2.628 1.522,0 c 0.483,0 0.867,0.115 1.153,0.343 0.28,0.229 0.423,0.555 0.423,0.979 0,0.871 -0.549,1.306 -1.643,1.306 l -1.455,0 z m -2.875,2.114 5.15,0 c 1.118,0 2.024,-0.324 2.723,-0.972 0.699,-0.645 1.049,-1.428 1.049,-2.346 0,-1.274 -0.659,-2.213 -1.977,-2.825 0.572,-0.261 1.118,-0.971 1.64,-2.126 0.524,-1.155 1.026,-2.245 1.508,-3.266 l -3.135,0 c -0.191,0.38 -0.522,1.103 -0.991,2.17 -0.471,1.068 -0.875,1.754 -1.205,2.056 -0.33,0.303 -0.686,0.454 -1.064,0.454 l -0.823,0 0,-4.68 -2.875,0 0,11.535 z"
           style="fill:#373535;fill-opacity:1;fill-rule:nonzero;stroke:none"
           id="path86"
           inkscape:connector-curvature="0" /><path
           d="m 380.958,376.206 0,-2.112 -8.493,0 0,11.535 8.379,0 0,-2.114 -5.503,0 0,-2.422 5.255,0 0,-2.113 -5.255,0 0,-2.774 5.617,0 z"
           style="fill:#373535;fill-opacity:1;fill-rule:nonzero;stroke:none"
           id="path88"
           inkscape:connector-curvature="0" /><path
           d="m 391.978,385.629 0,-2.114 -5.059,0 0,-2.583 5.059,0 0,-2.114 -5.059,0 0,-4.724 -2.879,0 0,11.535 7.938,0 z"
           style="fill:#373535;fill-opacity:1;fill-rule:nonzero;stroke:none"
           id="path90"
           inkscape:connector-curvature="0" /><path
           d="m 403.594,376.206 0,-2.112 -8.496,0 0,11.535 8.378,0 0,-2.114 -5.503,0 0,-2.422 5.252,0 0,-2.113 -5.252,0 0,-2.774 5.621,0 z"
           style="fill:#373535;fill-opacity:1;fill-rule:nonzero;stroke:none"
           id="path92"
           inkscape:connector-curvature="0" /><path
           d="m 409.548,383.515 0,-2.628 1.518,0 c 0.483,0 0.871,0.115 1.154,0.343 0.283,0.229 0.423,0.555 0.423,0.979 0,0.871 -0.547,1.306 -1.643,1.306 l -1.452,0 z m -2.876,2.114 5.15,0 c 1.116,0 2.025,-0.324 2.724,-0.972 0.695,-0.645 1.048,-1.428 1.048,-2.346 0,-1.274 -0.657,-2.213 -1.976,-2.825 0.571,-0.261 1.118,-0.971 1.639,-2.126 0.521,-1.155 1.026,-2.245 1.51,-3.266 l -3.136,0 c -0.192,0.38 -0.522,1.103 -0.992,2.17 -0.47,1.068 -0.873,1.754 -1.204,2.056 -0.333,0.303 -0.686,0.454 -1.068,0.454 l -0.819,0 0,-4.68 -2.876,0 0,11.535 z"
           style="fill:#373535;fill-opacity:1;fill-rule:nonzero;stroke:none"
           id="path94"
           inkscape:connector-curvature="0" /><path
           d="m 427.455,376.206 0,-2.112 -8.496,0 0,11.535 8.379,0 0,-2.114 -5.504,0 0,-2.422 5.256,0 0,-2.113 -5.256,0 0,-2.774 5.621,0 z"
           style="fill:#373535;fill-opacity:1;fill-rule:nonzero;stroke:none"
           id="path96"
           inkscape:connector-curvature="0" /><path
           d="m 442.201,385.629 0,-11.535 -2.425,0 -6.364,7.39 0,-7.39 -2.878,0 0,11.535 2.637,0 6.154,-7.052 0,7.052 2.876,0 z"
           style="fill:#373535;fill-opacity:1;fill-rule:nonzero;stroke:none"
           id="path98"
           inkscape:connector-curvature="0" /><path
           d="m 456.378,377.6 0,-2.518 c -1.442,-0.768 -2.951,-1.149 -4.53,-1.149 -2.047,0 -3.677,0.566 -4.891,1.699 -1.214,1.134 -1.82,2.532 -1.82,4.192 0,1.66 0.638,3.07 1.919,4.228 1.28,1.158 2.952,1.737 5.013,1.737 1.647,0 3.038,-0.338 4.175,-1.014 l 0,-2.567 c -1.394,0.783 -2.72,1.175 -3.968,1.175 -1.226,0 -2.23,-0.33 -3.008,-0.99 -0.776,-0.661 -1.166,-1.5 -1.166,-2.524 0,-1.026 0.383,-1.874 1.149,-2.543 0.77,-0.669 1.751,-1.002 2.952,-1.002 0.594,0 1.166,0.079 1.716,0.238 0.55,0.156 1.369,0.502 2.459,1.038"
           style="fill:#373535;fill-opacity:1;fill-rule:nonzero;stroke:none"
           id="path100"
           inkscape:connector-curvature="0" /><path
           d="m 468.026,376.206 0,-2.112 -8.5,0 0,11.535 8.382,0 0,-2.114 -5.503,0 0,-2.422 5.256,0 0,-2.113 -5.256,0 0,-2.774 5.621,0 z"
           style="fill:#373535;fill-opacity:1;fill-rule:nonzero;stroke:none"
           id="path102"
           inkscape:connector-curvature="0" /><path
           d="m 487.373,377.6 0,-2.518 c -1.439,-0.768 -2.949,-1.149 -4.528,-1.149 -2.046,0 -3.679,0.566 -4.89,1.699 -1.214,1.134 -1.82,2.532 -1.82,4.192 0,1.66 0.638,3.07 1.916,4.228 1.28,1.158 2.951,1.737 5.016,1.737 1.646,0 3.035,-0.338 4.175,-1.014 l 0,-2.567 c -1.397,0.783 -2.722,1.175 -3.968,1.175 -1.226,0 -2.23,-0.33 -3.005,-0.99 -0.783,-0.661 -1.17,-1.5 -1.17,-2.524 0,-1.026 0.384,-1.874 1.15,-2.543 0.766,-0.669 1.751,-1.002 2.949,-1.002 0.594,0 1.169,0.079 1.719,0.238 0.55,0.156 1.369,0.502 2.456,1.038"
           style="fill:#373535;fill-opacity:1;fill-rule:nonzero;stroke:none"
           id="path104"
           inkscape:connector-curvature="0" /><path
           d="m 499.024,376.206 0,-2.112 -8.5,0 0,11.535 8.382,0 0,-2.114 -5.503,0 0,-2.422 5.252,0 0,-2.113 -5.252,0 0,-2.774 5.621,0 z"
           style="fill:#373535;fill-opacity:1;fill-rule:nonzero;stroke:none"
           id="path106"
           inkscape:connector-curvature="0" /><path
           d="m 513.77,385.629 0,-11.535 -2.421,0 -6.37,7.39 0,-7.39 -2.876,0 0,11.535 2.64,0 6.149,-7.052 0,7.052 2.878,0 z"
           style="fill:#373535;fill-opacity:1;fill-rule:nonzero;stroke:none"
           id="path108"
           inkscape:connector-curvature="0" /><path
           d="m 527.623,385.629 0,-2.114 -4.182,0 0,-9.421 -2.878,0 0,9.421 -4.181,0 0,2.114 11.241,0 z"
           style="fill:#373535;fill-opacity:1;fill-rule:nonzero;stroke:none"
           id="path110"
           inkscape:connector-curvature="0" /><path
           d="m 538.718,376.206 0,-2.112 -8.492,0 0,11.535 8.375,0 0,-2.114 -5.503,0 0,-2.422 5.255,0 0,-2.113 -5.255,0 0,-2.774 5.62,0 z"
           style="fill:#373535;fill-opacity:1;fill-rule:nonzero;stroke:none"
           id="path112"
           inkscape:connector-curvature="0" /><path
           d="m 544.676,383.515 0,-2.628 1.518,0 c 0.484,0 0.868,0.115 1.151,0.343 0.286,0.229 0.428,0.555 0.428,0.979 0,0.871 -0.549,1.306 -1.645,1.306 l -1.452,0 z m -2.879,2.114 5.153,0 c 1.119,0 2.025,-0.324 2.724,-0.972 0.699,-0.645 1.045,-1.428 1.045,-2.346 0,-1.274 -0.657,-2.213 -1.977,-2.825 0.572,-0.261 1.119,-0.971 1.644,-2.126 0.52,-1.155 1.022,-2.245 1.509,-3.266 l -3.14,0 c -0.191,0.38 -0.518,1.103 -0.991,2.17 -0.47,1.068 -0.87,1.754 -1.204,2.056 -0.331,0.303 -0.683,0.454 -1.061,0.454 l -0.823,0 0,-4.68 -2.879,0 0,11.535 z"
           style="fill:#373535;fill-opacity:1;fill-rule:nonzero;stroke:none"
           id="path114"
           inkscape:connector-curvature="0" /></g></g></g></svg>